# File created by Blade
# Date/Time:  Thu Sep 25 18:39:44 2014
# Frame Rate: 120.000 fps
#------------------------------------------------------
:FULLY-SPECIFIED
:DEGREES
2201
root -1.237061 33.006100 -3.028423 6.099902 8.031079 -0.362849
Spine -12.167041 13.141212 -4.626131
Head -18.218380 -33.984893 27.490646
LeftShoulder 17.636028 12.601927 10.848870
LeftArm 48.591111 20.002014 -80.660991
LeftForeArm -55.485913 0.000000 123.452131
LeftHand -9.318998 -0.000000 -20.481704
LeftHandThumb1 -26.253704 0.000000 33.147579
RightShoulder 7.793558 27.774140 -31.685329
RightArm 106.314053 -29.392175 56.992382
RightForeArm 16.985289 -0.000000 122.502658
RightHand 0.310657 -0.000000 41.817610
RightHandThumb1 -24.326973 -0.000000 -32.862282
LeftUpLeg -1.544089 3.780138 2.333725
LeftLeg -0.331812 -0.000000 0.000000
LeftFoot -8.489570 -0.633397 -10.677814
LeftToeBase 9.995238 -0.000000 -0.000000
RightUpLeg -1.146943 -9.720993 0.631494
RightLeg 1.547090 -0.000000 -0.000000
RightFoot -8.689612 -3.604030 -0.181997
RightToeBase -0.223835 -0.000000 0.000000
2202
root -1.235271 33.006422 -3.028414 6.087752 8.035522 -0.363549
Spine -12.161995 13.148688 -4.620850
Head -18.194466 -33.999219 27.507696
LeftShoulder 17.635476 12.594176 10.843844
LeftArm 48.584135 20.018706 -80.671549
LeftForeArm -55.493242 -0.000000 123.423589
LeftHand -9.343508 -0.000000 -20.497558
LeftHandThumb1 -26.253704 0.000000 33.147579
RightShoulder 7.726460 27.636804 -31.649273
RightArm 106.449403 -29.341910 56.891627
RightForeArm 17.052868 -0.000000 122.444089
RightHand 0.356518 -0.000000 41.842863
RightHandThumb1 -24.326973 -0.000000 -32.862282
LeftUpLeg -1.529094 3.756903 2.333540
LeftLeg -0.337916 -0.000000 0.000000
LeftFoot -8.492327 -0.610614 -10.664971
LeftToeBase 10.015777 -0.000000 -0.000000
RightUpLeg -1.133773 -9.716667 0.626404
RightLeg 1.547023 -0.000000 -0.000000
RightFoot -8.694778 -3.605254 -0.176622
RightToeBase -0.226050 -0.000000 0.000000
2203
root -1.234350 33.007030 -3.028619 6.078025 8.040665 -0.368100
Spine -12.158709 13.153467 -4.614615
Head -18.179551 -34.014868 27.539165
LeftShoulder 17.617882 12.621581 10.854659
LeftArm 48.645437 20.039440 -80.553467
LeftForeArm -55.519318 -0.000000 123.389943
LeftHand -9.207947 0.000000 -20.412637
LeftHandThumb1 -26.253704 0.000000 33.147579
RightShoulder 7.695194 27.626883 -31.645560
RightArm 106.446518 -29.355616 56.879254
RightForeArm 17.083426 -0.000000 122.433842
RightHand 0.334806 -0.000000 41.851452
RightHandThumb1 -24.326973 -0.000000 -32.862282
LeftUpLeg -1.516014 3.730970 2.338429
LeftLeg -0.346923 -0.000000 0.000000
LeftFoot -8.487542 -0.596005 -10.689750
LeftToeBase 10.014477 -0.000000 -0.000000
RightUpLeg -1.151984 -9.764601 0.631907
RightLeg 1.604452 -0.000000 -0.000000
RightFoot -8.705809 -3.591160 -0.202528
RightToeBase -0.251793 -0.000000 0.000000
2204
root -1.233048 33.006516 -3.029538 6.076716 8.038828 -0.362879
Spine -12.159234 13.155633 -4.621532
Head -18.170701 -34.010719 27.562719
LeftShoulder 17.597538 12.608204 10.849954
LeftArm 48.623897 20.071440 -80.631528
LeftForeArm -55.507738 -0.000000 123.355397
LeftHand -9.296318 0.000000 -20.521048
LeftHandThumb1 -26.253704 0.000000 33.147579
RightShoulder 7.664808 27.667434 -31.664506
RightArm 106.393400 -29.393456 56.911573
RightForeArm 17.060791 -0.000000 122.438173
RightHand 0.341139 0.000000 41.844513
RightHandThumb1 -24.326973 -0.000000 -32.862282
LeftUpLeg -1.515531 3.725229 2.332114
LeftLeg -0.345626 -0.000000 0.000000
LeftFoot -8.495627 -0.594408 -10.687328
LeftToeBase 10.044885 -0.000000 -0.000000
RightUpLeg -1.137588 -9.711308 0.619670
RightLeg 1.581253 -0.000000 -0.000000
RightFoot -8.728641 -3.609774 -0.159255
RightToeBase -0.120667 -0.000000 0.000000
2205
root -1.231154 33.006949 -3.029708 6.066095 8.042244 -0.359125
Spine -12.149204 13.148031 -4.623895
Head -18.164003 -34.007599 27.602349
LeftShoulder 17.577179 12.611406 10.857055
LeftArm 48.642470 20.089665 -80.570390
LeftForeArm -55.527293 0.000000 123.332187
LeftHand -9.230550 0.000000 -20.493240
LeftHandThumb1 -26.253704 0.000000 33.147579
RightShoulder 7.635758 27.711614 -31.668715
RightArm 106.342889 -29.435377 56.936780
RightForeArm 17.076161 -0.000000 122.450456
RightHand 0.300354 -0.000000 41.854136
RightHandThumb1 -24.326973 -0.000000 -32.862282
LeftUpLeg -1.506789 3.715324 2.324703
LeftLeg -0.346844 -0.000000 0.000000
LeftFoot -8.475374 -0.587998 -10.683458
LeftToeBase 9.989657 -0.000000 -0.000000
RightUpLeg -1.127429 -9.689505 0.610011
RightLeg 1.585664 -0.000000 -0.000000
RightFoot -8.718062 -3.638409 -0.141659
RightToeBase -0.197530 -0.000000 0.000000
2206
root -1.230236 33.007445 -3.029967 6.053418 8.049161 -0.363406
Spine -12.138043 13.147597 -4.615533
Head -18.152483 -34.000141 27.623158
LeftShoulder 17.568500 12.619241 10.850081
LeftArm 48.664450 20.102033 -80.534314
LeftForeArm -55.553465 -0.000000 123.304620
LeftHand -9.221382 0.000000 -20.509956
LeftHandThumb1 -26.253704 0.000000 33.147579
RightShoulder 7.617202 27.779432 -31.675884
RightArm 106.259626 -29.483792 56.978566
RightForeArm 17.056780 -0.000000 122.456477
RightHand 0.322579 -0.000000 41.870455
RightHandThumb1 -24.326973 -0.000000 -32.862282
LeftUpLeg -1.492555 3.707617 2.325940
LeftLeg -0.341423 -0.000000 0.000000
LeftFoot -8.481712 -0.565686 -10.692423
LeftToeBase 9.979378 -0.000000 -0.000000
RightUpLeg -1.137675 -9.730320 0.616056
RightLeg 1.626114 -0.000000 -0.000000
RightFoot -8.721061 -3.629021 -0.195448
RightToeBase -0.249708 -0.000000 0.000000
2207
root -1.229886 33.007317 -3.030427 6.047767 8.052136 -0.368489
Spine -12.130981 13.138816 -4.601306
Head -18.142668 -33.987100 27.614800
LeftShoulder 17.549992 12.608808 10.831879
LeftArm 48.647398 20.124197 -80.547480
LeftForeArm -55.547989 -0.000000 123.306082
LeftHand -9.327555 -0.000000 -20.435472
LeftHandThumb1 -26.253704 0.000000 33.147579
RightShoulder 7.596564 27.832030 -31.702503
RightArm 106.205084 -29.524555 57.016627
RightForeArm 17.023803 -0.000000 122.470320
RightHand 0.342860 0.000000 41.868102
RightHandThumb1 -24.326973 -0.000000 -32.862282
LeftUpLeg -1.489286 3.708558 2.334281
LeftLeg -0.345052 -0.000000 0.000000
LeftFoot -8.488097 -0.582310 -10.642428
LeftToeBase 9.993635 -0.000000 -0.000000
RightUpLeg -1.135848 -9.725771 0.620834
RightLeg 1.629762 -0.000000 -0.000000
RightFoot -8.719813 -3.636563 -0.206405
RightToeBase -0.225090 -0.000000 0.000000
2208
root -1.228703 33.007166 -3.030951 6.040131 8.058340 -0.367410
Spine -12.126090 13.103545 -4.589191
Head -18.097813 -33.971470 27.589471
LeftShoulder 17.529999 12.640111 10.826939
LeftArm 48.658445 20.120240 -80.591648
LeftForeArm -55.520520 -0.000000 123.303257
LeftHand -9.312056 -0.000000 -20.516460
LeftHandThumb1 -26.253704 0.000000 33.147579
RightShoulder 7.608708 27.901353 -31.706549
RightArm 106.135326 -29.577776 57.065782
RightForeArm 17.026212 -0.000000 122.486354
RightHand 0.327467 -0.000000 41.879977
RightHandThumb1 -24.326973 -0.000000 -32.862282
LeftUpLeg -1.481475 3.706977 2.331300
LeftLeg -0.350347 -0.000000 0.000000
LeftFoot -8.477914 -0.593517 -10.660241
LeftToeBase 10.017371 -0.000000 -0.000000
RightUpLeg -1.131423 -9.711396 0.615399
RightLeg 1.641580 -0.000000 -0.000000
RightFoot -8.744614 -3.656579 -0.186046
RightToeBase -0.143224 -0.000000 0.000000
2209
root -1.228571 33.007155 -3.031750 6.034565 8.065170 -0.370671
Spine -12.122416 13.097648 -4.583625
Head -18.081741 -33.959868 27.595451
LeftShoulder 17.531351 12.644905 10.835032
LeftArm 48.680396 20.121484 -80.536956
LeftForeArm -55.503267 0.000000 123.300996
LeftHand -9.205703 -0.000000 -20.481041
LeftHandThumb1 -26.253704 0.000000 33.147579
RightShoulder 7.592152 27.966049 -31.716992
RightArm 106.068246 -29.627460 57.111615
RightForeArm 17.025699 0.000000 122.498769
RightHand 0.312580 -0.000000 41.901567
RightHandThumb1 -24.326973 -0.000000 -32.862282
LeftUpLeg -1.481592 3.728481 2.336837
LeftLeg -0.344561 -0.000000 0.000000
LeftFoot -8.483671 -0.629167 -10.625687
LeftToeBase 10.041137 -0.000000 -0.000000
RightUpLeg -1.128510 -9.719831 0.618073
RightLeg 1.641764 -0.000000 -0.000000
RightFoot -8.727952 -3.648151 -0.190579
RightToeBase -0.226846 -0.000000 0.000000
2210
root -1.227955 33.006966 -3.032506 6.028097 8.065900 -0.368929
Spine -12.114473 13.091530 -4.577163
Head -18.059053 -33.947882 27.572421
LeftShoulder 17.521197 12.651795 10.831028
LeftArm 48.698082 20.121087 -80.509039
LeftForeArm -55.520562 -0.000000 123.300288
LeftHand -9.190884 -0.000000 -20.478218
LeftHandThumb1 -26.253704 0.000000 33.147579
RightShoulder 7.577691 28.014554 -31.739703
RightArm 106.016824 -29.662244 57.148750
RightForeArm 17.017778 -0.000000 122.508299
RightHand 0.331399 -0.000000 41.929017
RightHandThumb1 -24.326973 -0.000000 -32.862282
LeftUpLeg -1.475366 3.736834 2.331792
LeftLeg -0.345934 -0.000000 0.000000
LeftFoot -8.483639 -0.623242 -10.656762
LeftToeBase 10.049462 -0.000000 -0.000000
RightUpLeg -1.128375 -9.712764 0.613879
RightLeg 1.658293 -0.000000 -0.000000
RightFoot -8.761336 -3.649340 -0.164732
RightToeBase -0.142835 -0.000000 0.000000
2211
root -1.228142 33.006894 -3.033588 6.024783 8.066458 -0.370658
Spine -12.111401 13.084996 -4.576107
Head -18.039598 -33.934310 27.574739
LeftShoulder 17.514095 12.665024 10.835390
LeftArm 48.723526 20.123386 -80.490071
LeftForeArm -55.512812 0.000000 123.294729
LeftHand -9.178743 0.000000 -20.448739
LeftHandThumb1 -26.253704 0.000000 33.147579
RightShoulder 7.562159 28.119910 -31.770774
RightArm 105.909794 -29.730151 57.220749
RightForeArm 16.998283 0.000000 122.539567
RightHand 0.300923 0.000000 41.922938
RightHandThumb1 -24.326973 -0.000000 -32.862282
LeftUpLeg -1.474519 3.737594 2.333615
LeftLeg -0.346115 -0.000000 0.000000
LeftFoot -8.484208 -0.629682 -10.671921
LeftToeBase 10.032381 -0.000000 -0.000000
RightUpLeg -1.129807 -9.712232 0.617365
RightLeg 1.658994 -0.000000 -0.000000
RightFoot -8.736778 -3.660542 -0.193470
RightToeBase -0.237478 -0.000000 0.000000
2212
root -1.227946 33.007041 -3.034169 6.018136 8.072510 -0.371303
Spine -12.108660 13.073516 -4.571711
Head -18.003371 -33.922568 27.551657
LeftShoulder 17.512627 12.681941 10.841385
LeftArm 48.745575 20.117494 -80.499926
LeftForeArm -55.502870 0.000000 123.279307
LeftHand -9.177148 -0.000000 -20.481228
LeftHandThumb1 -26.253704 0.000000 33.147579
RightShoulder 7.557656 28.191161 -31.786516
RightArm 105.826494 -29.768855 57.262698
RightForeArm 16.986174 -0.000000 122.552469
RightHand 0.297827 -0.000000 41.917197
RightHandThumb1 -24.326973 -0.000000 -32.862282
LeftUpLeg -1.471306 3.749565 2.334327
LeftLeg -0.342966 -0.000000 0.000000
LeftFoot -8.475213 -0.645958 -10.648348
LeftToeBase 10.016672 -0.000000 -0.000000
RightUpLeg -1.125653 -9.722990 0.616861
RightLeg 1.663009 -0.000000 -0.000000
RightFoot -8.734682 -3.651877 -0.196942
RightToeBase -0.224234 -0.000000 0.000000
